<svg width="152" height="51" viewBox="0 0 152 51" fill="none" xmlns="http://www.w3.org/2000/svg">
<path fill-rule="evenodd" clip-rule="evenodd" d="M27.4393 39.5079V0H0V48.4844L27.4393 39.5079Z" fill="#F44336"/>
<path fill-rule="evenodd" clip-rule="evenodd" d="M17.913 20.5263C17.913 20.5263 16.715 20.5263 14.4047 20.5263C12.0943 20.5263 8.70002 22.8418 8.70002 28.3306C8.70002 32.8188 11.3527 34.4769 13.9768 34.4769C15.46 34.4769 17.913 31.9041 17.913 28.8452V20.5263ZM25.8139 36.1636H17.913V34.0767C16.5724 35.306 13.7487 37.0498 10.5826 37.0498C7.44502 37.0498 1.51221 34.82 1.51221 28.2449C1.51221 21.6983 9.09939 18.4394 13.4919 18.4394C17.8845 18.4394 17.913 18.4394 17.913 18.4394C17.913 16.038 17.913 15.4662 17.913 13.7796C17.913 12.1215 16.715 10.635 14.5758 10.635C12.4081 10.635 9.78389 12.0643 9.78389 15.7235H3.4803C3.4803 13.2936 5.13464 8.57661 14.6329 8.57661C24.1596 8.57661 25.1579 12.8648 25.1579 14.7802C25.1579 16.7241 25.1579 32.5901 25.1579 33.505C25.1579 35.0773 25.8139 36.1636 25.8139 36.1636Z" fill="white"/>
<path fill-rule="evenodd" clip-rule="evenodd" d="M75.8431 27.1009H72.1633V26.7579L72.2206 26.4434L72.278 26.1576L72.3633 25.8717L72.4486 25.5858L72.5913 25.3571L72.734 25.0998L72.9053 24.8997L73.1046 24.6996L73.2759 24.4994L73.5039 24.3565L73.7325 24.185L73.9605 24.0707L74.1885 23.9563L74.4739 23.842L74.7305 23.7562L74.9872 23.699L75.2725 23.6418L75.5291 23.6133L75.8144 23.5847H75.8431L76.0711 23.6133L76.3564 23.6418L76.6131 23.6704L76.8984 23.7276L77.155 23.8134L77.4117 23.8991L77.6403 24.0135L77.8683 24.1278L78.125 24.2994L78.3243 24.4423L78.5243 24.6424L78.6956 24.8425L78.8949 25.0712L79.0376 25.2999L79.1516 25.5572L79.2656 25.8145L79.3516 26.129L79.4369 26.4148L79.4656 26.7579L79.4942 27.1009H75.8431ZM39.3334 9.89127H31.3755V36.592H39.3334V9.89127ZM151.943 23.7276L151.886 23.4703L151.829 23.1844L151.743 22.9558L151.686 22.6985L151.601 22.4698L151.515 22.2411L151.401 22.0124L151.315 21.8122L151.201 21.6122L151.087 21.412L150.945 21.2119L150.802 21.0404L150.659 20.8975L150.488 20.7259L150.345 20.5544L150.174 20.4115L150.003 20.2685L149.832 20.1256L149.632 20.0112L149.461 19.8683L149.262 19.7539L149.062 19.6396L148.862 19.4966L148.663 19.4109L148.434 19.2966L148.206 19.2108L148.007 19.0964L147.778 19.0106L147.55 18.9249L147.322 18.8391L147.094 18.7534L146.837 18.6676L146.58 18.6104L146.352 18.5533L146.096 18.4675L145.839 18.4103L145.582 18.3532L145.326 18.296L145.069 18.2388L144.784 18.2102L144.498 18.153L144.242 18.1244L143.956 18.0673L143.7 18.0387L143.414 17.9815L143.129 17.953L142.815 17.9243H142.53L142.245 17.8957H141.96L141.703 17.8672H141.418H141.104H140.79H140.477H140.163H139.849H139.535L139.25 17.8957L138.936 17.9243L138.623 17.953H138.309L138.023 17.9815L137.738 18.0387L137.482 18.0673L137.196 18.1244L136.94 18.153L136.654 18.2102L136.398 18.2388L136.112 18.296L135.856 18.3532L135.599 18.4103L135.371 18.4961L135.114 18.5533L134.886 18.6104L134.629 18.6962L134.401 18.782L134.144 18.8677L133.916 18.9535L133.688 19.0393L133.488 19.125L133.26 19.2393L133.032 19.3251L132.832 19.4395L132.604 19.5538L132.433 19.6682L132.233 19.7826L132.034 19.8969L131.834 20.0112L131.634 20.1542L131.463 20.2971L131.292 20.4115L131.093 20.5544L130.95 20.7259L130.779 20.8689L130.607 21.0118L130.465 21.1547L130.294 21.3262L130.123 21.4978L129.98 21.6407L129.837 21.8408L129.695 22.0124L129.581 22.1838L129.438 22.384L129.324 22.5841L129.181 22.7556L129.067 22.9843L128.953 23.1844L128.867 23.3845L128.782 23.6418L128.668 23.842L128.611 24.0992L128.525 24.328L128.44 24.5852L128.411 24.8425L128.354 25.0998L128.325 25.2999L128.297 25.4429L128.269 25.9003H137.082V25.5L137.111 25.3857L137.168 25.2141L137.254 24.9854L137.368 24.7567L137.482 24.5852L137.653 24.4137L137.795 24.2707L137.995 24.1278L138.223 24.0421L138.423 23.9563L138.679 23.8705L138.936 23.7848L139.193 23.7276L139.478 23.699H139.763L140.077 23.6704L140.363 23.699H140.676L140.933 23.7562L141.189 23.8134L141.447 23.8705L141.675 23.9563L141.903 24.0421L142.103 24.1564L142.302 24.2994L142.445 24.4423L142.587 24.6424L142.673 24.8711L142.73 25.1284V25.3857V25.6716L142.645 25.9003L142.53 26.1003L142.359 26.2433L142.188 26.3576L141.96 26.472L141.731 26.5578L141.503 26.6436L141.247 26.7007L140.99 26.7579L140.733 26.815L140.448 26.8723L140.191 26.9008L139.079 27.0723L137.966 27.2439L136.854 27.3868L135.77 27.5583L135.485 27.5869L135.228 27.6441L134.943 27.7013L134.686 27.7299L134.43 27.787L134.144 27.8442L133.888 27.9014L133.631 27.9586L133.374 28.0157L133.146 28.1015L132.889 28.1587L132.632 28.2159L132.404 28.3016L132.148 28.3874L131.92 28.4445L131.691 28.5303L131.435 28.6161L131.207 28.7018L130.979 28.7876L130.779 28.9019L130.551 28.9877L130.323 29.0735L130.123 29.1878L129.923 29.3022L129.723 29.4165L129.523 29.5595L129.324 29.6738L129.153 29.7882L128.982 29.9311L128.811 30.1026L128.639 30.2455L128.497 30.4171L128.354 30.5886L128.211 30.7601L128.069 30.9317L127.955 31.1318L127.841 31.3604L127.755 31.5606L127.641 31.7893L127.584 32.018L127.499 32.2753L127.441 32.5326L127.384 32.7898L127.327 33.0757L127.299 33.333L127.27 33.6189V33.8762L127.299 34.1335L127.327 34.3907L127.384 34.6194L127.47 34.8767L127.555 35.0769L127.669 35.3056L127.783 35.5056L127.926 35.6772L128.069 35.8487L128.24 35.9916L128.411 36.1346L128.582 36.2775L128.782 36.3919L129.01 36.4776L129.267 36.5348L129.523 36.5634L129.809 36.592H138.423L137.995 36.3061L137.909 36.2203L137.795 36.0774L137.681 35.9345L137.539 35.7343L137.425 35.5629L137.31 35.3341L137.225 35.0769L137.168 34.8196V34.5623L137.225 34.305L137.282 34.0477L137.368 33.8476L137.482 33.6475L137.653 33.476L137.795 33.333L137.966 33.1615L138.166 33.0471L138.366 32.9328L138.565 32.8184L138.793 32.7327L139.022 32.6469L139.991 32.3324L140.933 32.018L141.161 31.9322L141.418 31.8751L141.646 31.7893L141.903 31.7035L142.131 31.6178L142.302 31.5606L142.416 31.532L142.559 31.5034L142.815 31.3604V36.592H152V24.6138V24.328L151.971 24.0135L151.943 23.7276ZM56.3047 9.83405H47.0632V18.3246H43.3267V24.0707H47.0632V31.8179V32.0751V32.361V32.6183L47.0918 32.8756L47.1203 33.1043L47.1488 33.333L47.2058 33.5617L47.2629 33.7904L47.32 33.9905L47.377 34.1906L47.4625 34.3907L47.5481 34.5909L47.6622 34.7624L47.7478 34.9339L47.8619 35.0769L47.976 35.2484L48.1186 35.3627L48.2327 35.5056L48.3753 35.6486L48.5179 35.7915L48.6605 35.9059L48.8317 35.9916L49.0028 36.106L49.231 36.1632L49.4306 36.2203L49.6303 36.3061L49.8299 36.3633L50.0867 36.3919L50.3149 36.4205L50.5716 36.449L50.7998 36.4776H51.0565L51.3417 36.5062H56.3047V24.0707H61.6101V18.3246H56.3047V9.83405ZM106.905 18.1816L106.677 18.1244L106.477 18.0673L106.277 18.0101L106.049 17.9815L105.849 17.953L105.621 17.9243L105.393 17.8957H105.165H104.965H104.737L104.537 17.9243L104.309 17.953L104.109 17.9815L103.881 18.0387L103.71 18.0673L103.511 18.1244L103.311 18.1816L103.14 18.2388L102.969 18.296L102.769 18.3532L102.598 18.4389L102.427 18.5247L102.256 18.6104L102.084 18.6962L101.913 18.8106L101.742 18.8963L101.6 19.0106L101.428 19.125L101.286 19.2393L101.114 19.3537L101 19.4966L100.858 19.6396L100.715 19.7539L100.572 19.8969L100.458 20.0398L100.316 20.1828L100.202 20.3542L100.088 20.4972V18.3246H91.5882V36.592H100.944V27.5297V27.2725L100.972 27.0152L101 26.7865L101.058 26.5863L101.114 26.3576L101.2 26.1576L101.286 25.9574L101.372 25.7859L101.457 25.6144L101.571 25.4429L101.714 25.2999L101.828 25.157L101.97 25.0427L102.113 24.8997L102.256 24.7854L102.427 24.6996L102.598 24.5852L102.769 24.4994L102.969 24.4137L103.168 24.328L103.368 24.2707L103.596 24.2136L103.795 24.1564L104.053 24.1278L104.281 24.0992L104.537 24.0707H107.304V18.3246L107.105 18.2388L106.905 18.1816ZM125.559 18.1816L125.36 18.1244L125.16 18.0673L124.932 18.0101L124.732 17.9815L124.504 17.953L124.304 17.9243L124.076 17.8957H123.848H123.648H123.42L123.192 17.9243L122.992 17.953L122.764 17.9815L122.564 18.0387L122.364 18.0673L122.164 18.1244L121.994 18.1816L121.794 18.2388L121.622 18.296L121.452 18.3532L121.252 18.4389L121.08 18.5247L120.91 18.6104L120.738 18.6962L120.596 18.8106L120.425 18.8963L120.254 19.0106L120.083 19.125L119.94 19.2393L119.797 19.3537L119.655 19.4966L119.512 19.6396L119.369 19.7539L119.227 19.8969L119.113 20.0398L118.999 20.1828L118.856 20.3542L118.742 20.4972L118.771 18.3246H110.27V36.592H119.598V27.5297V27.2725L119.626 27.0152L119.683 26.7865L119.74 26.5863L119.797 26.3576L119.855 26.1576L119.94 25.9574L120.025 25.7859L120.139 25.6144L120.254 25.4429L120.368 25.2999L120.482 25.157L120.624 25.0427L120.767 24.8997L120.938 24.7854L121.109 24.6996L121.252 24.5852L121.452 24.4994L121.622 24.4137L121.822 24.328L122.022 24.2707L122.25 24.2136L122.478 24.1564L122.706 24.1278L122.963 24.0992L123.192 24.0707H125.987V18.3246L125.759 18.2388L125.559 18.1816ZM88.6497 28.8448V28.5875L88.6217 28.3588V28.1301L88.5644 27.8728L88.5357 27.6441L88.507 27.3868L88.4504 27.1295L88.393 26.9008L88.365 26.615L88.3077 26.3576L88.2504 26.129L88.1937 25.8717L88.1077 25.6144L88.0224 25.3571L87.9371 25.1284L87.8511 24.8711L87.7657 24.6138L87.6804 24.3851L87.5664 24.1278L87.4804 23.9277L87.3664 23.699L87.2524 23.4989L87.1384 23.2702L87.0244 23.0701L86.8818 22.87L86.7391 22.6698L86.6251 22.4698L86.4825 22.2982L86.3112 22.0981L86.1685 21.9266L86.0258 21.7265L85.8545 21.5549L85.6838 21.3835L85.5125 21.2119L85.3412 21.0404L85.1699 20.8975L84.9992 20.7259L84.7993 20.583L84.5999 20.44L84.4286 20.2685L84.2286 20.1256L84.0293 20.0112L83.8013 19.8683L83.63 19.7539L83.402 19.6396L83.202 19.4966L82.974 19.3823L82.774 19.2679L82.546 19.1822L82.318 19.0679L82.1181 18.9821L81.8901 18.8963L81.6621 18.8106L81.4335 18.7248L81.2055 18.639L80.9775 18.5819L80.7208 18.5247L80.4922 18.4675L80.2642 18.4103L80.0362 18.3532L79.7795 18.296L79.5509 18.2674L79.2942 18.2102L79.0376 18.1816L78.7809 18.1244L78.5243 18.0673L78.2676 18.0387L78.011 18.0101L77.7543 17.9815L77.4977 17.953L77.241 17.9243L76.9837 17.8957H76.699L76.4704 17.8672H76.1851H75.9284H75.8431H75.6718H75.4151H75.1585L74.9018 17.8957H74.6452L74.3885 17.9243L74.1319 17.953L73.8465 17.9815L73.5899 18.0101L73.3332 18.0387L73.1046 18.0673L72.848 18.1244L72.5626 18.1816L72.3346 18.2388L72.078 18.296L71.8213 18.3532L71.5647 18.4103L71.308 18.4961L71.0514 18.5533L70.7947 18.639L70.5661 18.7248L70.3094 18.8106L70.0814 18.8963L69.8248 18.9821L69.5968 19.0964L69.3395 19.2108L69.1115 19.3251L68.8548 19.4109L68.6268 19.5538L68.3988 19.6682L68.1702 19.7826L67.9422 19.8969L67.7142 20.0398L67.4856 20.1828L67.2576 20.2971L67.0583 20.44L66.8296 20.583L66.6303 20.7545L66.4303 20.8975L66.259 21.0689L66.0883 21.2119L65.917 21.3835L65.7457 21.5549L65.603 21.7265L65.4324 21.9266L65.2897 22.0981L65.1184 22.2982L65.0044 22.4698L64.8331 22.6698L64.7191 22.87L64.5764 23.0701L64.4624 23.2702L64.3484 23.4989L64.2344 23.699L64.1198 23.9277L64.0058 24.1278L63.9205 24.3565L63.8065 24.5567L63.7205 24.7854L63.6351 25.014L63.5498 25.2141L63.4925 25.4429L63.4071 25.6716L63.3498 25.9003L63.2931 26.129L63.2358 26.3576L63.1785 26.5863L63.1505 26.8436L63.1218 27.0723L63.0645 27.3296L63.0365 27.5583L63.0078 27.8156V28.0443L62.9792 28.3016L62.9505 28.5303V28.7876V29.0163V29.2736V29.5309L62.9792 29.7595L63.0078 30.0168V30.2455L63.0645 30.5028L63.0932 30.7315L63.1218 30.9888L63.1785 31.2461L63.2072 31.4748L63.2931 31.7035L63.3498 31.9322L63.4071 32.1895L63.4925 32.4182L63.5498 32.6469L63.6351 32.8756L63.7205 33.1043L63.8065 33.333L63.9205 33.5617L64.0058 33.7904L64.1198 34.0191L64.2344 34.2192L64.3484 34.4479L64.4624 34.648L64.5764 34.8767L64.7191 35.0769L64.8331 35.3056L65.0044 35.4771L65.1184 35.6772L65.2897 35.8773L65.4324 36.0774L65.575 36.2775L65.7457 36.4776H72.392V31.7893H75.8431H88.393L88.4504 31.532L88.507 31.3033L88.5357 31.0746L88.5644 30.8173L88.593 30.56L88.6217 30.3313L88.6497 30.074V29.8453L88.6784 29.5881V29.3308V29.1021L88.6497 28.8448Z" fill="#034899"/>
<path fill-rule="evenodd" clip-rule="evenodd" d="M150.431 49.2847V48.084H151.629V49.2847H150.431ZM150.688 47.6552L150.374 44.4534V42.9954H151.686V44.4534L151.372 47.6552H150.688ZM147.864 47.1121C147.721 47.1406 147.464 47.1978 147.15 47.2835C146.808 47.3408 146.608 47.4265 146.494 47.4837C146.352 47.5981 146.266 47.741 146.266 47.9125C146.266 48.084 146.323 48.227 146.437 48.3413C146.58 48.4557 146.722 48.5414 146.922 48.5414C147.15 48.5414 147.35 48.4557 147.55 48.3127C147.692 48.1984 147.778 48.084 147.835 47.9125C147.864 47.8267 147.864 47.6266 147.864 47.3408V47.1121ZM146.266 46.1401L145.183 45.9399C145.297 45.4825 145.525 45.1681 145.81 44.9394C146.124 44.7107 146.552 44.6249 147.15 44.6249C147.692 44.6249 148.063 44.6821 148.348 44.825C148.605 44.9394 148.776 45.1109 148.89 45.311C149.004 45.4825 149.062 45.8542 149.062 46.3688L149.033 47.7695C149.033 48.1698 149.062 48.4557 149.09 48.6558C149.118 48.8559 149.204 49.056 149.318 49.2847H148.12C148.092 49.1989 148.035 49.0846 148.006 48.9131C147.978 48.8559 147.978 48.7987 147.949 48.7701C147.75 48.9988 147.521 49.1417 147.322 49.2275C147.065 49.3419 146.836 49.399 146.552 49.399C146.095 49.399 145.725 49.2561 145.468 48.9988C145.211 48.7415 145.069 48.4271 145.069 48.0268C145.069 47.7981 145.125 47.5408 145.239 47.3408C145.354 47.1692 145.525 46.9977 145.753 46.8833C145.981 46.769 146.295 46.6832 146.722 46.6261C147.264 46.5117 147.664 46.3974 147.864 46.3116V46.1972C147.864 45.9685 147.806 45.797 147.692 45.6827C147.578 45.5969 147.378 45.5397 147.065 45.5397C146.836 45.5397 146.666 45.5969 146.552 45.6827C146.437 45.7684 146.352 45.9114 146.266 46.1401ZM140.561 44.7107H144.669V45.6827H143.215V49.2847H142.016V45.6827H140.561V44.7107ZM135.77 44.7107H136.968V46.3974H138.708V44.7107H139.906V49.2847H138.708V47.3693H136.968V49.2847H135.77V44.7107ZM131.434 46.9977C131.434 47.4551 131.549 47.7981 131.777 48.0268C131.976 48.2841 132.233 48.3984 132.547 48.3984C132.861 48.3984 133.117 48.2841 133.345 48.0268C133.545 47.7981 133.659 47.4551 133.659 46.9977C133.659 46.5403 133.545 46.1972 133.345 45.9685C133.117 45.7398 132.861 45.5969 132.547 45.5969C132.233 45.5969 131.976 45.7398 131.777 45.9685C131.549 46.1972 131.434 46.5689 131.434 46.9977ZM130.208 46.9405C130.208 46.5403 130.322 46.1686 130.493 45.7684C130.721 45.3968 130.978 45.1109 131.349 44.9394C131.691 44.7107 132.119 44.6249 132.547 44.6249C133.231 44.6249 133.802 44.8536 134.23 45.311C134.657 45.7399 134.886 46.3116 134.886 46.9977C134.886 47.6838 134.657 48.2555 134.23 48.7129C133.773 49.1704 133.231 49.399 132.547 49.399C132.147 49.399 131.748 49.2847 131.377 49.1131C130.978 48.9131 130.721 48.6272 130.493 48.2555C130.322 47.9125 130.208 47.4551 130.208 46.9405ZM124.189 44.7107H125.672L126.785 47.8839L127.926 44.7107H129.409V49.2847H128.382V46.283L127.298 49.2847H126.272L125.216 46.283V49.2847H124.189V44.7107ZM122.107 46.6261C122.079 46.2544 121.993 45.9971 121.822 45.8256C121.651 45.6541 121.451 45.5397 121.223 45.5397C120.938 45.5397 120.738 45.6541 120.567 45.8256C120.396 46.0257 120.31 46.283 120.31 46.6261H122.107ZM122.022 47.8268L123.22 48.0268C123.077 48.4557 122.82 48.7987 122.507 49.056C122.165 49.2561 121.765 49.399 121.251 49.399C120.453 49.399 119.883 49.1417 119.511 48.5986C119.198 48.1984 119.055 47.6552 119.055 47.0548C119.055 46.283 119.255 45.6827 119.654 45.2539C120.025 44.825 120.539 44.6249 121.137 44.6249C121.793 44.6249 122.335 44.8536 122.735 45.311C123.106 45.7399 123.305 46.4259 123.276 47.3408H120.282C120.282 47.7124 120.396 47.9697 120.567 48.1984C120.767 48.3699 120.995 48.4842 121.251 48.4842C121.451 48.4842 121.594 48.4271 121.737 48.3127C121.879 48.227 121.965 48.0554 122.022 47.8268ZM115.204 46.9405C115.204 47.4265 115.319 47.7981 115.518 48.0554C115.718 48.3127 115.975 48.4271 116.26 48.4271C116.545 48.4271 116.774 48.3127 116.944 48.084C117.144 47.8553 117.23 47.4837 117.23 46.9977C117.23 46.5117 117.116 46.1401 116.944 45.9114C116.745 45.6827 116.517 45.5683 116.232 45.5683C115.946 45.5683 115.69 45.6827 115.518 45.9114C115.319 46.1401 115.204 46.4831 115.204 46.9405ZM114.035 44.7107H115.148V45.3968C115.29 45.1681 115.49 44.9966 115.746 44.825C116.004 44.6821 116.26 44.6249 116.574 44.6249C117.087 44.6249 117.543 44.825 117.914 45.2539C118.285 45.6541 118.456 46.2258 118.456 46.9691C118.456 47.741 118.285 48.3413 117.914 48.7415C117.543 49.1704 117.087 49.399 116.574 49.399C116.317 49.399 116.089 49.3419 115.861 49.2275C115.661 49.1417 115.462 48.9702 115.233 48.7129V51H114.035V44.7107ZM106.248 44.7107H107.389V47.5694L109.243 44.7107H110.413V49.2847H109.272V46.3688L107.389 49.2847H106.248V44.7107ZM98.4613 44.7107H99.6025V47.5694L101.456 44.7107H102.626V49.2847H101.485V46.3688L99.6025 49.2847H98.4613V44.7107ZM94.0688 44.7107H95.2668V46.5689C95.4668 46.5689 95.6094 46.5117 95.6947 46.3974C95.7801 46.283 95.8661 46.0829 95.9801 45.7399C96.1227 45.311 96.294 45.0252 96.4934 44.8822C96.6647 44.7679 96.9213 44.6821 97.2066 44.6821C97.292 44.6821 97.4633 44.7107 97.6913 44.7107V45.5112C97.3773 45.5112 97.1493 45.5397 97.0927 45.5969C97.0067 45.6541 96.8927 45.8542 96.7787 46.1686C96.6647 46.5689 96.4647 46.8262 96.1794 46.9405C96.5787 47.0548 96.8927 47.3693 97.1493 47.9125C97.1493 47.9697 97.178 47.9697 97.2066 48.0268L97.8626 49.2847H96.5787L95.9801 47.9411C95.8661 47.6838 95.7521 47.5123 95.6661 47.4265C95.5808 47.3693 95.4381 47.3121 95.2668 47.3121V49.2847H94.0688V44.7107ZM91.5876 42.8811H92.1576C92.1296 43.2813 91.9869 43.5958 91.7583 43.7959C91.5017 44.0246 91.2164 44.1389 90.8457 44.1389C90.4464 44.1389 90.1331 44.0246 89.9044 43.7959C89.6764 43.5958 89.5338 43.2813 89.5051 42.8811H90.0757C90.1044 43.0812 90.1897 43.2527 90.3037 43.3385C90.4177 43.4529 90.5891 43.51 90.8457 43.51C91.0457 43.51 91.245 43.4529 91.359 43.3385C91.4736 43.2527 91.559 43.0812 91.5876 42.8811ZM88.7352 44.7107H89.8758V47.5694L91.7016 44.7107H92.8996V49.2847H91.7303V46.3688L89.8758 49.2847H88.7352V44.7107ZM84.3708 46.9977C84.3708 47.4551 84.4854 47.7981 84.6847 48.0268C84.9127 48.2841 85.17 48.3984 85.4834 48.3984C85.7973 48.3984 86.054 48.2841 86.2533 48.0268C86.4819 47.7981 86.5673 47.4551 86.5673 46.9977C86.5673 46.5403 86.4819 46.1972 86.2533 45.9685C86.054 45.7398 85.7973 45.5969 85.4834 45.5969C85.17 45.5969 84.9127 45.7398 84.6847 45.9685C84.4854 46.1972 84.3708 46.5689 84.3708 46.9977ZM83.1448 46.9405C83.1448 46.5403 83.2301 46.1686 83.4301 45.7684C83.6294 45.3968 83.9148 45.1109 84.2568 44.9394C84.628 44.7107 85.0274 44.6249 85.4834 44.6249C86.168 44.6249 86.7099 44.8536 87.1666 45.311C87.5939 45.7399 87.8225 46.3116 87.8225 46.9977C87.8225 47.6838 87.5939 48.2555 87.1666 48.7129C86.7099 49.1704 86.1393 49.399 85.4834 49.399C85.0554 49.399 84.6847 49.2847 84.2854 49.1131C83.9148 48.9131 83.6294 48.6272 83.4301 48.2555C83.2301 47.9125 83.1448 47.4551 83.1448 46.9405ZM79.237 46.9405C79.237 47.4265 79.3224 47.7981 79.5504 48.0554C79.7503 48.3127 79.9783 48.4271 80.2637 48.4271C80.549 48.4271 80.777 48.3127 80.9483 48.084C81.1482 47.8553 81.2336 47.4837 81.2336 46.9977C81.2336 46.5117 81.1482 46.1401 80.9483 45.9114C80.777 45.6827 80.5203 45.5683 80.235 45.5683C79.9497 45.5683 79.7217 45.6827 79.5223 45.9114C79.3224 46.1401 79.237 46.4831 79.237 46.9405ZM78.0678 44.7107H79.1797V45.3968C79.3224 45.1681 79.5223 44.9966 79.7503 44.825C80.007 44.6821 80.2923 44.6249 80.5776 44.6249C81.1196 44.6249 81.5476 44.825 81.9182 45.2539C82.2889 45.6541 82.4602 46.2258 82.4602 46.9691C82.4602 47.741 82.2889 48.3413 81.9182 48.7415C81.5476 49.1704 81.0909 49.399 80.5776 49.399C80.321 49.399 80.0923 49.3419 79.893 49.2275C79.693 49.1417 79.465 48.9702 79.237 48.7129V51H78.0678V44.7107ZM73.2754 44.7107H77.3831V45.6827H75.9279V49.2847H74.73V45.6827H73.2754V44.7107ZM72.9047 46.0829L71.7355 46.283C71.6782 46.0543 71.5928 45.8828 71.4502 45.7399C71.3075 45.6255 71.1362 45.5683 70.9082 45.5683C70.6229 45.5683 70.3662 45.6827 70.1949 45.8828C70.0242 46.0829 69.9383 46.4259 69.9383 46.9119C69.9383 47.4551 70.0242 47.8553 70.1949 48.0554C70.3662 48.2841 70.6229 48.3984 70.9368 48.3984C71.1648 48.3984 71.3362 48.3413 71.4788 48.1984C71.6215 48.084 71.7355 47.8553 71.7922 47.5408L72.9621 47.741C72.8474 48.2841 72.6194 48.6844 72.2488 48.9702C71.9348 49.2561 71.4502 49.399 70.8795 49.399C70.1949 49.399 69.6816 49.1704 69.2823 48.7415C68.883 48.3413 68.6836 47.741 68.6836 46.9977C68.6836 46.2544 68.883 45.6827 69.2823 45.2539C69.6816 44.825 70.2236 44.6249 70.9082 44.6249C71.4502 44.6249 71.8781 44.7393 72.1915 44.9966C72.5341 45.2252 72.7621 45.5969 72.9047 46.0829ZM64.1199 45.4825H63.264C62.95 45.4825 62.722 45.5397 62.608 45.6255C62.4653 45.7112 62.408 45.8542 62.408 46.0829C62.408 46.283 62.4653 46.4545 62.6367 46.5403C62.7793 46.6261 63.0073 46.6832 63.3493 46.6832H64.1199V45.4825ZM65.3178 44.7107V49.2847H64.1199V47.3693H64.0339C63.7486 47.3693 63.5779 47.4265 63.4353 47.4837C63.3213 47.5408 63.1786 47.7124 63.036 47.9125L62.9787 47.9982L62.1801 49.2847H60.7824L61.6381 47.9411C61.8948 47.5694 62.0945 47.3693 62.2942 47.3121C61.9804 47.2835 61.6952 47.1692 61.4955 46.9119C61.2673 46.6832 61.1532 46.3974 61.1532 46.0257C61.1532 45.7112 61.2388 45.4825 61.3814 45.2539C61.5241 45.0537 61.6952 44.9108 61.9234 44.825C62.1516 44.7679 62.5227 44.7107 62.95 44.7107H65.3178ZM56.2187 44.7107H60.2119V49.2847H59.014V45.6827H57.3882V47.741C57.3882 48.2555 57.3311 48.6272 57.2171 48.8273C57.1029 49.056 56.9603 49.1989 56.8177 49.2561C56.6751 49.3133 56.4469 49.3419 56.1047 49.3419C55.9335 49.3419 55.6768 49.3133 55.363 49.2847V48.3984C55.3916 48.3984 55.4486 48.3984 55.5627 48.3984C55.6768 48.3984 55.7909 48.3984 55.8479 48.3984C56.0191 48.3984 56.1046 48.3413 56.1617 48.2555C56.1902 48.1412 56.2187 47.8553 56.2187 47.3693V44.7107ZM53.3949 48.2841V45.7112H51.9403C51.8832 46.9691 51.6836 47.8267 51.3413 48.2841H53.3949ZM54.0795 49.2847H50.6567V50.4568H49.687V48.2841H50.1718C50.3715 48.0554 50.5426 47.7124 50.6852 47.2264C50.8279 46.7404 50.8849 45.9114 50.9134 44.7107H54.5644V48.2841H55.0493V50.4568H54.0795V49.2847ZM45.2373 44.1389V43.0812H46.2642V44.1389H45.2373ZM43.3833 44.1389V43.0812H44.4387V44.1389H43.3833ZM45.7507 46.6261C45.7507 46.2544 45.6652 45.9971 45.494 45.8256C45.3229 45.6541 45.1232 45.5397 44.8665 45.5397C44.6098 45.5397 44.3816 45.6541 44.2105 45.8256C44.0394 46.0257 43.9538 46.283 43.9538 46.6261H45.7507ZM45.6937 47.8268L46.8917 48.0268C46.7205 48.4557 46.4923 48.7987 46.1501 49.056C45.8078 49.2561 45.4085 49.399 44.895 49.399C44.1249 49.399 43.5544 49.1417 43.1551 48.5986C42.8699 48.1984 42.7273 47.6552 42.7273 47.0548C42.7273 46.283 42.8984 45.6827 43.2977 45.2539C43.6971 44.825 44.1819 44.6249 44.781 44.6249C45.4655 44.6249 45.9789 44.8536 46.3783 45.311C46.7776 45.7399 46.9487 46.4259 46.9487 47.3408H43.9538C43.9538 47.7124 44.0394 47.9697 44.239 48.1984C44.4101 48.3699 44.6383 48.4842 44.9236 48.4842C45.1232 48.4842 45.2659 48.4271 45.3799 48.3127C45.5225 48.227 45.6081 48.0554 45.6937 47.8268ZM42.1568 46.0829L40.9589 46.283C40.9303 46.0543 40.8447 45.8828 40.7021 45.7399C40.5596 45.6255 40.3884 45.5683 40.1602 45.5683C39.8465 45.5683 39.6183 45.6827 39.4472 45.8828C39.276 46.0829 39.1619 46.4259 39.1619 46.9119C39.1619 47.4551 39.276 47.8553 39.4472 48.0554C39.6183 48.2841 39.875 48.3984 40.1602 48.3984C40.3884 48.3984 40.588 48.3413 40.7307 48.1984C40.8733 48.084 40.9874 47.8553 41.0444 47.5408L42.2139 47.741C42.0998 48.2841 41.8716 48.6844 41.5008 48.9702C41.1585 49.2561 40.7021 49.399 40.1032 49.399C39.4472 49.399 38.9337 49.1704 38.5344 48.7415C38.1351 48.3413 37.9354 47.741 37.9354 46.9977C37.9354 46.2544 38.1351 45.6827 38.5344 45.2539C38.9337 44.825 39.4756 44.6249 40.1317 44.6249C40.6736 44.6249 41.13 44.7393 41.4438 44.9966C41.786 45.2252 42.0142 45.5969 42.1568 46.0829ZM33.172 46.5403V48.1984H34.3415C34.7978 48.1984 35.0831 48.1984 35.2257 48.1698C35.3969 48.1412 35.5394 48.0554 35.682 47.9125C35.7962 47.7981 35.8532 47.598 35.8532 47.3693C35.8532 47.1978 35.7962 47.0263 35.7106 46.9119C35.625 46.769 35.4824 46.6832 35.3113 46.6261C35.1401 46.5688 34.7694 46.5403 34.1989 46.5403H33.172ZM33.172 44.0246V45.4825H33.9992C34.4841 45.4825 34.7978 45.4825 34.9119 45.4539C35.1401 45.4254 35.3113 45.3682 35.4254 45.2539C35.5394 45.1109 35.5965 44.9679 35.5965 44.7393C35.5965 44.5678 35.568 44.3962 35.4539 44.2819C35.3398 44.1675 35.1972 44.0818 34.969 44.0532C34.8549 44.0532 34.4841 44.0246 33.9136 44.0246H33.172ZM31.917 42.9954H34.427C34.9119 42.9954 35.2827 43.024 35.5109 43.0526C35.7676 43.0812 35.9958 43.1956 36.1669 43.3099C36.3666 43.4528 36.5093 43.6243 36.6518 43.8245C36.7945 44.0532 36.8515 44.2819 36.8515 44.5677C36.8515 44.8536 36.766 45.1395 36.5948 45.3682C36.4522 45.6255 36.2525 45.797 35.9673 45.9399C36.3381 46.0543 36.6233 46.2258 36.8515 46.5117C37.0512 46.769 37.1368 47.0835 37.1368 47.4551C37.1368 47.741 37.0797 47.9982 36.9656 48.2841C36.823 48.5414 36.6233 48.7701 36.4237 48.9417C36.1669 49.0846 35.9102 49.1989 35.568 49.2275C35.3398 49.2561 34.8549 49.2561 34.0277 49.2847H31.917V42.9954Z" fill="#034899"/>
</svg>
