<svg width="308" height="39" viewBox="0 0 308 39" fill="none" xmlns="http://www.w3.org/2000/svg">
<path d="M56.1504 29H53.5117V11.2539H43.6953V29H41.0703V9.09375H56.1504V29ZM63.5605 21.207V29H60.9355V9.09375H68.2773C70.4557 9.09375 72.1602 9.64974 73.3906 10.7617C74.6302 11.8737 75.25 13.3457 75.25 15.1777C75.25 17.11 74.6439 18.6003 73.4316 19.6484C72.2285 20.6875 70.5013 21.207 68.25 21.207H63.5605ZM63.5605 19.0605H68.2773C69.681 19.0605 70.7565 18.7324 71.5039 18.0762C72.2513 17.4108 72.625 16.4538 72.625 15.2051C72.625 14.0202 72.2513 13.0723 71.5039 12.3613C70.7565 11.6504 69.7311 11.2812 68.4277 11.2539H63.5605V19.0605ZM93.9121 19.6895C93.9121 21.64 93.584 23.3444 92.9277 24.8027C92.2715 26.252 91.3418 27.3594 90.1387 28.125C88.9355 28.8906 87.5319 29.2734 85.9277 29.2734C84.36 29.2734 82.9701 28.8906 81.7578 28.125C80.5456 27.3503 79.6022 26.252 78.9277 24.8301C78.2624 23.3991 77.9206 21.7448 77.9023 19.8672V18.4316C77.9023 16.5176 78.235 14.8268 78.9004 13.3594C79.5658 11.8919 80.5046 10.7708 81.7168 9.99609C82.9382 9.21224 84.3327 8.82031 85.9004 8.82031C87.4954 8.82031 88.8991 9.20768 90.1113 9.98242C91.3327 10.748 92.2715 11.8646 92.9277 13.332C93.584 14.7904 93.9121 16.4902 93.9121 18.4316V19.6895ZM91.3008 18.4043C91.3008 16.0436 90.8268 14.2344 89.8789 12.9766C88.931 11.7096 87.6048 11.0762 85.9004 11.0762C84.2415 11.0762 82.9336 11.7096 81.9766 12.9766C81.0286 14.2344 80.541 15.9844 80.5137 18.2266V19.6895C80.5137 21.9772 80.9922 23.7773 81.9492 25.0898C82.9154 26.3932 84.2415 27.0449 85.9277 27.0449C87.623 27.0449 88.9355 26.4297 89.8652 25.1992C90.7949 23.9596 91.2734 22.1868 91.3008 19.8809V18.4043ZM107.68 11.0898H108.104C109.607 11.099 110.979 11.4499 112.219 12.1426C113.458 12.8353 114.42 13.7923 115.104 15.0137C115.796 16.2259 116.143 17.584 116.143 19.0879C116.143 20.6009 115.796 21.9727 115.104 23.2031C114.411 24.4336 113.454 25.3952 112.232 26.0879C111.011 26.7715 109.653 27.1224 108.158 27.1406H107.68V29.8203H105.137V27.1406H104.754C103.232 27.1406 101.846 26.7943 100.598 26.1016C99.3581 25.4089 98.3919 24.4518 97.6992 23.2305C97.0156 22.0091 96.6738 20.6374 96.6738 19.1152C96.6738 17.5931 97.0156 16.2214 97.6992 15C98.3919 13.7786 99.3581 12.8216 100.598 12.1289C101.846 11.4362 103.232 11.0898 104.754 11.0898H105.137V8.27344H107.68V11.0898ZM104.754 13.1543C103.04 13.1543 101.682 13.6829 100.68 14.7402C99.6862 15.7884 99.1895 17.2467 99.1895 19.1152C99.1895 20.9928 99.6862 22.4557 100.68 23.5039C101.673 24.543 103.04 25.0625 104.781 25.0625H105.137V13.1543H104.754ZM107.68 13.1543V25.0625H108.062C109.803 25.0625 111.161 24.5293 112.137 23.4629C113.121 22.3874 113.613 20.929 113.613 19.0879C113.613 17.265 113.121 15.8203 112.137 14.7539C111.161 13.6875 109.785 13.1543 108.008 13.1543H107.68ZM130.703 19.7988H122.076V26.8535H132.098V29H119.451V9.09375H131.961V11.2539H122.076V17.6523H130.703V19.7988ZM150.008 22.6836C149.762 24.7891 148.982 26.416 147.67 27.5645C146.367 28.7038 144.63 29.2734 142.461 29.2734C140.109 29.2734 138.223 28.4303 136.801 26.7441C135.388 25.0579 134.682 22.8021 134.682 19.9766V18.0625C134.682 16.2122 135.01 14.5853 135.666 13.1816C136.331 11.778 137.27 10.7025 138.482 9.95508C139.695 9.19857 141.098 8.82031 142.693 8.82031C144.808 8.82031 146.503 9.41276 147.779 10.5977C149.055 11.7734 149.798 13.4049 150.008 15.4922H147.369C147.141 13.9062 146.645 12.7578 145.879 12.0469C145.122 11.3359 144.061 10.9805 142.693 10.9805C141.016 10.9805 139.699 11.6003 138.742 12.8398C137.794 14.0794 137.32 15.8431 137.32 18.1309V20.0586C137.32 22.2188 137.771 23.9368 138.674 25.2129C139.576 26.4889 140.839 27.127 142.461 27.127C143.919 27.127 145.036 26.7988 145.811 26.1426C146.594 25.4772 147.114 24.3242 147.369 22.6836H150.008ZM168.246 22.6836C168 24.7891 167.221 26.416 165.908 27.5645C164.605 28.7038 162.868 29.2734 160.699 29.2734C158.348 29.2734 156.461 28.4303 155.039 26.7441C153.626 25.0579 152.92 22.8021 152.92 19.9766V18.0625C152.92 16.2122 153.248 14.5853 153.904 13.1816C154.57 11.778 155.508 10.7025 156.721 9.95508C157.933 9.19857 159.337 8.82031 160.932 8.82031C163.046 8.82031 164.742 9.41276 166.018 10.5977C167.294 11.7734 168.036 13.4049 168.246 15.4922H165.607C165.38 13.9062 164.883 12.7578 164.117 12.0469C163.361 11.3359 162.299 10.9805 160.932 10.9805C159.255 10.9805 157.938 11.6003 156.98 12.8398C156.033 14.0794 155.559 15.8431 155.559 18.1309V20.0586C155.559 22.2188 156.01 23.9368 156.912 25.2129C157.814 26.4889 159.077 27.127 160.699 27.127C162.158 27.127 163.274 26.7988 164.049 26.1426C164.833 25.4772 165.352 24.3242 165.607 22.6836H168.246ZM184.393 9.09375H187.018V29H184.393V13.6602L174.59 29H171.951V9.09375H174.59V24.4336L184.393 9.09375ZM207.115 19.6895C207.115 21.64 206.787 23.3444 206.131 24.8027C205.475 26.252 204.545 27.3594 203.342 28.125C202.139 28.8906 200.735 29.2734 199.131 29.2734C197.563 29.2734 196.173 28.8906 194.961 28.125C193.749 27.3503 192.805 26.252 192.131 24.8301C191.465 23.3991 191.124 21.7448 191.105 19.8672V18.4316C191.105 16.5176 191.438 14.8268 192.104 13.3594C192.769 11.8919 193.708 10.7708 194.92 9.99609C196.141 9.21224 197.536 8.82031 199.104 8.82031C200.699 8.82031 202.102 9.20768 203.314 9.98242C204.536 10.748 205.475 11.8646 206.131 13.332C206.787 14.7904 207.115 16.4902 207.115 18.4316V19.6895ZM204.504 18.4043C204.504 16.0436 204.03 14.2344 203.082 12.9766C202.134 11.7096 200.808 11.0762 199.104 11.0762C197.445 11.0762 196.137 11.7096 195.18 12.9766C194.232 14.2344 193.744 15.9844 193.717 18.2266V19.6895C193.717 21.9772 194.195 23.7773 195.152 25.0898C196.118 26.3932 197.445 27.0449 199.131 27.0449C200.826 27.0449 202.139 26.4297 203.068 25.1992C203.998 23.9596 204.477 22.1868 204.504 19.8809V18.4043ZM226.352 29H223.713V19.7988H213.678V29H211.053V9.09375H213.678V17.6523H223.713V9.09375H226.352V29ZM266.902 9.09375V29H264.277V11.2539H257.141L256.785 19.1426C256.648 21.7858 256.375 23.7728 255.965 25.1035C255.564 26.4342 254.971 27.4141 254.188 28.043C253.404 28.6628 252.355 28.9818 251.043 29H250.182V26.8535L250.729 26.8262C251.576 26.7624 252.228 26.4889 252.684 26.0059C253.139 25.5137 253.486 24.7344 253.723 23.668C253.96 22.6016 254.128 20.9609 254.229 18.7461L254.639 9.09375H266.902Z" fill="#1B1717"/>
<path fill-rule="evenodd" clip-rule="evenodd" d="M249 30.2365V0H228V37.1064L249 30.2365Z" fill="#F44336"/>
<path fill-rule="evenodd" clip-rule="evenodd" d="M241.709 15.7095C241.709 15.7095 240.792 15.7095 239.024 15.7095C237.256 15.7095 234.658 17.4816 234.658 21.6824C234.658 25.1173 236.688 26.3863 238.697 26.3863C239.832 26.3863 241.709 24.4172 241.709 22.0762V15.7095ZM247.756 27.6771H241.709V26.08C240.683 27.0208 238.522 28.3554 236.099 28.3554C233.698 28.3554 229.157 26.6488 229.157 21.6167C229.157 16.6065 234.964 14.1123 238.326 14.1123C241.687 14.1123 241.709 14.1123 241.709 14.1123C241.709 12.2745 241.709 11.8369 241.709 10.546C241.709 9.27708 240.792 8.1394 239.155 8.1394C237.496 8.1394 235.488 9.23333 235.488 12.0338H230.663C230.663 10.1741 231.93 6.56409 239.199 6.56409C246.49 6.56409 247.254 9.84594 247.254 11.3118C247.254 12.7996 247.254 24.9423 247.254 25.6424C247.254 26.8457 247.756 27.6771 247.756 27.6771Z" fill="white"/>
</svg>
